/* XPM */
static char *_c38147a8802443fb8c82e429932d6d2uFbXQkC1BGf2LUYn[] = {
/* columns rows colors chars-per-pixel */
"100 100 83 1 ",
"  c black",
". c #080702",
"X c gray3",
"o c #0E0E0E",
"O c #1F1C07",
"+ c #1F1D10",
"@ c gray12",
"# c #242008",
"$ c #38320D",
"% c #3D3712",
"& c gray14",
"* c #323232",
"= c #615615",
"- c #665B16",
"; c #6C6018",
": c #716519",
"> c #7C6F1B",
", c gray27",
"< c gray29",
"1 c #7B754C",
"2 c #626262",
"3 c #6C6C6C",
"4 c #7B7B7B",
"5 c #8E7F1F",
"6 c #928320",
"7 c #968725",
"8 c #998922",
"9 c #9E8E23",
"0 c #A08F23",
"q c #A79525",
"w c #A89625",
"e c #AF9D28",
"r c #B29F27",
"t c #C7B22D",
"y c #CCB62D",
"u c #DBC430",
"i c #DDC631",
"p c #E8D033",
"a c #EBD234",
"s c #F0D735",
"d c #F7DD36",
"f c #FEE338",
"g c #FFE438",
"h c #FFE53E",
"j c #FFE543",
"k c #FFE648",
"l c #FFE853",
"z c #FFE856",
"x c #FFEB6F",
"c c #FFEC76",
"v c #FFED78",
"b c #808080",
"n c gray56",
"m c #929292",
"M c gray59",
"N c gray60",
"B c #A8A597",
"V c #AFAFAF",
"C c #B2B2B2",
"Z c gray75",
"A c #FFEE83",
"S c #FFEF87",
"D c #FFEF8B",
"F c #FFEF8E",
"G c #FFF090",
"H c #FFF29E",
"J c #FFF3A7",
"K c #FFF5B2",
"L c #FFF5B5",
"P c #C1C1C1",
"I c #CBCBCB",
"U c gray83",
"Y c gray85",
"T c gray87",
"R c #FFF7C1",
"E c #FFFADA",
"W c #FFFBE3",
"Q c #FFFDEF",
"! c gray94",
"~ c gray97",
"^ c #FFFEF4",
"/ c #FFFEF9",
"( c white",
/* pixels */
"~~~~~~~~~~~~~~~~~~~~~~~~~~~~~~~~~~~~~~~~~~~~~~~~~~~~~~~~~~~~~~~~~~~~~~~~~~~~~~~~~~~~~~~~~~~~~~~~~~~~",
"~~~~~~~~~~~~~~~~~~~~~~~~~~~~~~~~~~~~~~~~~~~~~~~~~~~~~~~~~~~~~~~~~~~~~~~~~~~~~~~~~~~~~~~~~~~~~~~~~~~~",
"~~~~~~~~~~~~~~~~~~~~~~~~~~~~~~~~~~~~~~~~~~~~~~~~~~~~~~~~~~~~~~~~~~~~~~~~~~~~~~~~~~~~~~~~~~~~~~~~~~~~",
"~~~~~~~~~~~~~~~~~~~~~~~~~~~~~~~~~~~~~~~~~~~~~~~~~~~~~~~~~~~~~~~~~~~~~~~~~~~~~~~~~~~~~~~~~~~~~~~~~~~~",
"~~~~~~~~~~~~~~~~~~~~~~~~~~~~~~~~~~~~~~~~~~~~TIIIIIIIIIIT~~~~~~~~~~~~~~~~~~~~~~~~~~~~~~~~~~~~~~~~~~~~",
"~~~~~~~~~~~~~~~~~~~~~~~~~~~~~~~~~~~~~~~~~~~~3          3~~~~~~~~~~~~~~~~~~~~~~~~~~~~~~~~~~~~~~~~~~~~",
"~~~~~~~~~~~~~~~~~~~~~~~~~~~~~~~~~~~~~~~~~~~~3          3~~~~~~~~~~~~~~~~~~~~~~~~~~~~~~~~~~~~~~~~~~~~",
"~~~~~~~~~~~~~~~~~~~~~~~~~~~~~~~~~~~~~~~~~~~~3          3~~~~~~~~~~~~~~~~~~~~~~~~~~~~~~~~~~~~~~~~~~~~",
"~~~~~~~~~~~~~~~~~~~~~~~~~~~~~~~~~~~~~~~~~~~~3          3~~~~~~~~~~~~~~~~~~~~~~~~~~~~~~~~~~~~~~~~~~~~",
"~~~~~~~~~~~~~~~~~~~~~~~~~~~~~~~~~~~~~~~~~~~~3          3~~~~~~~~~~~~~~~~~~~~~~~~~~~~~~~~~~~~~~~~~~~~",
"~~~~~~~~~~~~~~~~~~~~~~~~~~~~~~~~~~~~~~mnnnnn433333;;;;;1nnnnnm~~~~~~~~~~~~~~~~~~~~~~~~~~~~~~~~~~~~~~",
"~~~~~~~~~~~~~~~~~~~~~~~~~~~~~~~~~~~~~~X     n(((((ggggg5     X~~~~~~~~~~~~~~~~~~~~~~~~~~~~~~~~~~~~~~",
"~~~~~~~~~~~~~~~~~~~~~~~~~~~~~~~~~~~~~~X     n(((((ggggg5     X~~~~~~~~~~~~~~~~~~~~~~~~~~~~~~~~~~~~~~",
"~~~~~~~~~~~~~~~~~~~~~~~~~~~~~~~~~~~~~~X     n(((((ggggg5     X~~~~~~~~~~~~~~~~~~~~~~~~~~~~~~~~~~~~~~",
"~~~~~~~~~~~~~~~~~~~~~~~~~~~~~~~~~~~~~~X     n(((((ggggg5     X~~~~~~~~~~~~~~~~~~~~~~~~~~~~~~~~~~~~~~",
"~~~~~~~~~~~~~~~~~~~~~~~~~~~~~~~~~~~~~~X     n(((((ggggg5     X~~~~~~~~~~~~~~~~~~~~~~~~~~~~~~~~~~~~~~",
"~~~~~~~~~~~~~~~~~~~~~~~~~~~~~~~~~~~~~~X     n(((((ggggg5     X~~~~~~~~~~~~~~~~~~~~~~~~~~~~~~~~~~~~~~",
"~~~~~~~~~~~~~~~~~~~~~~~~~~~~~~~~n<<<<<VCCCCCT(((((gggggirrrrre<<<<<n~~~~~~~~~~~~~~~~~~~~~~~~~~~~~~~~",
"~~~~~~~~~~~~~~~~~~~~~~~~~~~~~~~~2     ~(((((((((((gggggggggggd     2~~~~~~~~~~~~~~~~~~~~~~~~~~~~~~~~",
"~~~~~~~~~~~~~~~~~~~~~~~~~~~~~~~~2     ~(((((((((((gggggggggggd     2~~~~~~~~~~~~~~~~~~~~~~~~~~~~~~~~",
"~~~~~~~~~~~~~~~~~~~~~~~~~~~~~~~~2     ~(((((((((((gggggggggggd     2~~~~~~~~~~~~~~~~~~~~~~~~~~~~~~~~",
"~~~~~~~~~~~~~~~~~~~~~~~~~~~~~~~~2     ~(((((((((((gggggggggggd     2~~~~~~~~~~~~~~~~~~~~~~~~~~~~~~~~",
"~~~~~~~~~~~~~~~~~~~~~~~~~~~~~~~~2     ~(((((((((((gggggggggggd     2~~~~~~~~~~~~~~~~~~~~~~~~~~~~~~~~",
"~~~~~~~~~~~~~~~~~~~~~~~~~~YoooooM!!!!!((((((((((((ggggggggggggsssss7oooooY~~~~~~~~~~~~~~~~~~~~~~~~~~",
"~~~~~~~~~~~~~~~~~~~~~~~~~~Y     N(((((((((((((((((ggggggggggggggggg8     Y~~~~~~~~~~~~~~~~~~~~~~~~~~",
"~~~~~~~~~~~~~~~~~~~~~~~~~~Y     N(((((((((((((((((ggggggggggggggggg8     Y~~~~~~~~~~~~~~~~~~~~~~~~~~",
"~~~~~~~~~~~~~~~~~~~~~~~~~~Y     N(((((((((((((((((ggggggggggggggggg8     Y~~~~~~~~~~~~~~~~~~~~~~~~~~",
"~~~~~~~~~~~~~~~~~~~~~~~~~~Y     N(((((((((((((((((ggggggggggggggggg8     Y~~~~~~~~~~~~~~~~~~~~~~~~~~",
"~~~~~~~~~~~~~~~~~~~~~TUUUUZ&&&&&BWWWWW((((((QWWWWWuuuuuagggggfuuuuu6#####ZUUUUT~~~~~~~~~~~~~~~~~~~~~",
"~~~~~~~~~~~~~~~~~~~~~,    @(((((Sggggg/(((((Gggggg     :gggggd     -gggggO    ,~~~~~~~~~~~~~~~~~~~~~",
"~~~~~~~~~~~~~~~~~~~~~,    @(((((Sggggg/(((((Gggggg     :gggggd     -gggggO    ,~~~~~~~~~~~~~~~~~~~~~",
"~~~~~~~~~~~~~~~~~~~~~,    @(((((Sggggg/(((((Gggggg     :gggggd     -gggggO    ,~~~~~~~~~~~~~~~~~~~~~",
"~~~~~~~~~~~~~~~~~~~~~,    @(((((Sggggg/(((((Gggggg     :gggggd     -gggggO    ,~~~~~~~~~~~~~~~~~~~~~",
"~~~~~~~~~~~~~~~~~~~~~,    @(((((Sggggg/(((((Gggggg     :gggggd     -gggggO    ,~~~~~~~~~~~~~~~~~~~~~",
"~~~~~~~~~~~~~~~~~~~~~,    @(((((LAAAAAKLLLLLxggggg=====>999999=====0gggggO    ,~~~~~~~~~~~~~~~~~~~~~",
"~~~~~~~~~~~~~~~~~~~~~,    @(((((((((((hgggggggggggggggg5     .gggggggggggO    ,~~~~~~~~~~~~~~~~~~~~~",
"~~~~~~~~~~~~~~~~~~~~~,    @(((((((((((hgggggggggggggggg5     .gggggggggggO    ,~~~~~~~~~~~~~~~~~~~~~",
"~~~~~~~~~~~~~~~~~~~~~,    @(((((((((((hgggggggggggggggg5     .gggggggggggO    ,~~~~~~~~~~~~~~~~~~~~~",
"~~~~~~~~~~~~~~~~~~~~~,    @(((((((((((hgggggggggggggggg5     .gggggggggggO    ,~~~~~~~~~~~~~~~~~~~~~",
"~~~~~~~~~~~~~~~~~~~~~,    @(((((((((((hgggggggggggggggg5     .gggggggggggO    ,~~~~~~~~~~~~~~~~~~~~~",
"~~~~~~~~~~~~~~~~~~~~~,    @(((((((((((hgggggggggggggggg5     .gggggggggggO    ,~~~~~~~~~~~~~~~~~~~~~",
"~~~~~~~~~~~~~~~~~~~~~,    @(((((((((((hgggggggggggggggg5     .gggggggggggO    ,~~~~~~~~~~~~~~~~~~~~~",
"~~~~~~~~~~~~~~~~~~~~~,    @(((((((((((hgggggggggggggggg5     .gggggggggggO    ,~~~~~~~~~~~~~~~~~~~~~",
"~~~~~~~~~~~~~~~~~~~~~,    @(((((((((((hgggggggggggggggg5     .gggggggggggO    ,~~~~~~~~~~~~~~~~~~~~~",
"~~~~~~~~~~~~~~~~~~~~~,    @(((((((((((hgggggggggggggggg5     .gggggggggggO    ,~~~~~~~~~~~~~~~~~~~~~",
"~~~~~~~~~~~~~~~~~~~~~,    @(((((((((((hgggggggggggggggg5     .gggggggggggO    ,~~~~~~~~~~~~~~~~~~~~~",
"~~~~~~~~~~~~~~~~~~~~~,    @(((((((((((hgggggggggggggggg5     .gggggggggggO    ,~~~~~~~~~~~~~~~~~~~~~",
"~~~~~~~~~~~~~~~~~~~~~,    @(((((((((((hgggggggggggggggg5     .gggggggggggO    ,~~~~~~~~~~~~~~~~~~~~~",
"~~~~~~~~~~~~~~~~~~~~~,    @(((((((((((hgggggggggggggggg5     .gggggggggggO    ,~~~~~~~~~~~~~~~~~~~~~",
"~~~~~~~~~~~~~~~~~~~~~,    @(((((((((((hgggggggggggggggg5     .gggggggggggO    ,~~~~~~~~~~~~~~~~~~~~~",
"~~~~~~~~~~~~~~~~~~~~~,    @(((((((((((hgggggggggggggggg5     .gggggggggggO    ,~~~~~~~~~~~~~~~~~~~~~",
"~~~~~~~~~~~~~~~~~~~~~,    @(((((((((((hgggggggggggggggg5     .gggggggggggO    ,~~~~~~~~~~~~~~~~~~~~~",
"~~~~~~~~~~~~~~~~~~~~~,    @(((((((((((hgggggggggggggggg5     .gggggggggggO    ,~~~~~~~~~~~~~~~~~~~~~",
"~~~~~~~~~~~~~~~~~~~~~,    @(((((((((((hgggggggggggggggg5     .gggggggggggO    ,~~~~~~~~~~~~~~~~~~~~~",
"~~~~~~~~~~~~~~~~~~~~~,    @(((((((((((hgggggggggggggggg5     .gggggggggggO    ,~~~~~~~~~~~~~~~~~~~~~",
"~~~~~~~~~~~~~~~~~~~~~,    @(((((((((((hgggggggggggggggg5     .gggggggggggO    ,~~~~~~~~~~~~~~~~~~~~~",
"~~~~~~~~~~~~~~~~~~~~~,    @(((((((((((hgggggggggggggggg5     .gggggggggggO    ,~~~~~~~~~~~~~~~~~~~~~",
"~~~~~~~~~~~~~~~~~~~~~,    @(((((((((((hgggggggggggggggg5     .gggggggggggO    ,~~~~~~~~~~~~~~~~~~~~~",
"~~~~~~~~~~~~~~~~~~~~~,    @(((((ERRRRRvccccclgggggggggg5     .gggggggggggO    ,~~~~~~~~~~~~~~~~~~~~~",
"~~~~~~~~~~~~~~~~~~~~~,    @(((((FjjjjjQ^^^^^Dgggggggggg5     .gggggggggggO    ,~~~~~~~~~~~~~~~~~~~~~",
"~~~~~~~~~~~~~~~~~~~~~,    @(((((Sggggg/(((((Ggggggggggg5     .gggggggggggO    ,~~~~~~~~~~~~~~~~~~~~~",
"~~~~~~~~~~~~~~~~~~~~~,    @(((((Sggggg/(((((Ggggggggggg5     .gggggggggggO    ,~~~~~~~~~~~~~~~~~~~~~",
"~~~~~~~~~~~~~~~~~~~~~,    @(((((Sggggg/(((((Ggggggggggg5     .gggggggggggO    ,~~~~~~~~~~~~~~~~~~~~~",
"~~~~~~~~~~~~~~~~~~~~~,    @(((((Sggggg/(((((Ggggggggggg5     .gggggggggggO    ,~~~~~~~~~~~~~~~~~~~~~",
"~~~~~~~~~~~~~~~~~~~~~,    @(((((Sggggg/(((((Ggggggggggg5     .gggggggggggO    ,~~~~~~~~~~~~~~~~~~~~~",
"~~~~~~~~~~~~~~~~~~~~~,    +AAAAAzgggggAAAAAAHLLLLL=====>999999=====0gggggO    ,~~~~~~~~~~~~~~~~~~~~~",
"~~~~~~~~~~~~~~~~~~~~~,    OgggggggggggggggggJ(((((     :gggggd     -gggggO    ,~~~~~~~~~~~~~~~~~~~~~",
"~~~~~~~~~~~~~~~~~~~~~,    OgggggggggggggggggJ(((((     :gggggd     -gggggO    ,~~~~~~~~~~~~~~~~~~~~~",
"~~~~~~~~~~~~~~~~~~~~~,    OgggggggggggggggggJ(((((     :gggggd     -gggggO    ,~~~~~~~~~~~~~~~~~~~~~",
"~~~~~~~~~~~~~~~~~~~~~,    OgggggggggggggggggJ(((((     :gggggd     -gggggO    ,~~~~~~~~~~~~~~~~~~~~~",
"~~~~~~~~~~~~~~~~~~~~~,    OgggggggggggggggggJ(((((     :gggggd     -gggggO    ,~~~~~~~~~~~~~~~~~~~~~",
"~~~~~~~~~~~~~~~~~~~~~TUUUUZ#####wgggggggggggkzzzzzuuuuuagggggfuuuuu6#####ZUUUUT~~~~~~~~~~~~~~~~~~~~~",
"~~~~~~~~~~~~~~~~~~~~~~~~~~Y     8gggggggggggggggggggggggggggggggggg8     Y~~~~~~~~~~~~~~~~~~~~~~~~~~",
"~~~~~~~~~~~~~~~~~~~~~~~~~~Y     8gggggggggggggggggggggggggggggggggg8     Y~~~~~~~~~~~~~~~~~~~~~~~~~~",
"~~~~~~~~~~~~~~~~~~~~~~~~~~Y     8gggggggggggggggggggggggggggggggggg8     Y~~~~~~~~~~~~~~~~~~~~~~~~~~",
"~~~~~~~~~~~~~~~~~~~~~~~~~~Y     8gggggggggggggggggggggggggggggggggg8     Y~~~~~~~~~~~~~~~~~~~~~~~~~~",
"~~~~~~~~~~~~~~~~~~~~~~~~~~Yooooo7sssssggggggggggggggggggggggggsssss7oooooY~~~~~~~~~~~~~~~~~~~~~~~~~~",
"~~~~~~~~~~~~~~~~~~~~~~~~~~~~~~~~2     dggggggggggggggggggggggd     2~~~~~~~~~~~~~~~~~~~~~~~~~~~~~~~~",
"~~~~~~~~~~~~~~~~~~~~~~~~~~~~~~~~2     dggggggggggggggggggggggd     2~~~~~~~~~~~~~~~~~~~~~~~~~~~~~~~~",
"~~~~~~~~~~~~~~~~~~~~~~~~~~~~~~~~2     dggggggggggggggggggggggd     2~~~~~~~~~~~~~~~~~~~~~~~~~~~~~~~~",
"~~~~~~~~~~~~~~~~~~~~~~~~~~~~~~~~2     dggggggggggggggggggggggd     2~~~~~~~~~~~~~~~~~~~~~~~~~~~~~~~~",
"~~~~~~~~~~~~~~~~~~~~~~~~~~~~~~~~2     dggggggggggggggggggggggd     2~~~~~~~~~~~~~~~~~~~~~~~~~~~~~~~~",
"~~~~~~~~~~~~~~~~~~~~~~~~~~~~~~~~b*****tyyyyypggggggggggpyyyyyt*****b~~~~~~~~~~~~~~~~~~~~~~~~~~~~~~~~",
"~~~~~~~~~~~~~~~~~~~~~~~~~~~~~~~~UPPPPP%$$$$$qggggggggggq$$$$$%PPPPPU~~~~~~~~~~~~~~~~~~~~~~~~~~~~~~~~",
"~~~~~~~~~~~~~~~~~~~~~~~~~~~~~~~~~~~~~~X     5gggggggggg5     X~~~~~~~~~~~~~~~~~~~~~~~~~~~~~~~~~~~~~~",
"~~~~~~~~~~~~~~~~~~~~~~~~~~~~~~~~~~~~~~X     5gggggggggg5     X~~~~~~~~~~~~~~~~~~~~~~~~~~~~~~~~~~~~~~",
"~~~~~~~~~~~~~~~~~~~~~~~~~~~~~~~~~~~~~~X     5gggggggggg5     X~~~~~~~~~~~~~~~~~~~~~~~~~~~~~~~~~~~~~~",
"~~~~~~~~~~~~~~~~~~~~~~~~~~~~~~~~~~~~~~X     5gggggggggg5     X~~~~~~~~~~~~~~~~~~~~~~~~~~~~~~~~~~~~~~",
"~~~~~~~~~~~~~~~~~~~~~~~~~~~~~~~~~~~~~~X     5gggggggggg5     X~~~~~~~~~~~~~~~~~~~~~~~~~~~~~~~~~~~~~~",
"~~~~~~~~~~~~~~~~~~~~~~~~~~~~~~~~~~~~~~mnnnnn1;;;;;;;;;;1nnnnnm~~~~~~~~~~~~~~~~~~~~~~~~~~~~~~~~~~~~~~",
"~~~~~~~~~~~~~~~~~~~~~~~~~~~~~~~~~~~~~~~~~~~~3          3~~~~~~~~~~~~~~~~~~~~~~~~~~~~~~~~~~~~~~~~~~~~",
"~~~~~~~~~~~~~~~~~~~~~~~~~~~~~~~~~~~~~~~~~~~~3          3~~~~~~~~~~~~~~~~~~~~~~~~~~~~~~~~~~~~~~~~~~~~",
"~~~~~~~~~~~~~~~~~~~~~~~~~~~~~~~~~~~~~~~~~~~~3          3~~~~~~~~~~~~~~~~~~~~~~~~~~~~~~~~~~~~~~~~~~~~",
"~~~~~~~~~~~~~~~~~~~~~~~~~~~~~~~~~~~~~~~~~~~~3          3~~~~~~~~~~~~~~~~~~~~~~~~~~~~~~~~~~~~~~~~~~~~",
"~~~~~~~~~~~~~~~~~~~~~~~~~~~~~~~~~~~~~~~~~~~~3          3~~~~~~~~~~~~~~~~~~~~~~~~~~~~~~~~~~~~~~~~~~~~",
"~~~~~~~~~~~~~~~~~~~~~~~~~~~~~~~~~~~~~~~~~~~~TIIIIIIIIIIT~~~~~~~~~~~~~~~~~~~~~~~~~~~~~~~~~~~~~~~~~~~~",
"~~~~~~~~~~~~~~~~~~~~~~~~~~~~~~~~~~~~~~~~~~~~~~~~~~~~~~~~~~~~~~~~~~~~~~~~~~~~~~~~~~~~~~~~~~~~~~~~~~~~",
"~~~~~~~~~~~~~~~~~~~~~~~~~~~~~~~~~~~~~~~~~~~~~~~~~~~~~~~~~~~~~~~~~~~~~~~~~~~~~~~~~~~~~~~~~~~~~~~~~~~~",
"~~~~~~~~~~~~~~~~~~~~~~~~~~~~~~~~~~~~~~~~~~~~~~~~~~~~~~~~~~~~~~~~~~~~~~~~~~~~~~~~~~~~~~~~~~~~~~~~~~~~",
"~~~~~~~~~~~~~~~~~~~~~~~~~~~~~~~~~~~~~~~~~~~~~~~~~~~~~~~~~~~~~~~~~~~~~~~~~~~~~~~~~~~~~~~~~~~~~~~~~~~~"
};
